# xmcd
#
# Track frame offsets: 
#        150
#        21086
#        45231
#        73156
#        97898
#        117285
#        140733
#        164310
#        183932
#        213217
#
# Disc length: 3079 seconds
#
# Revision: 1
# Processed by: cddbd v1.5.2PL0 Copyright (c) Steve Scherf et al.
# Submitted via: ExactAudioCopy v0.99pb4
#
DISCID=820c050a
DTITLE=Гера Грач и группа 'Бумер' - Я приду...
DYEAR=2006
DGENRE=Шансон
TTITLE0=Белый пух
TTITLE1=Она
TTITLE2=Осень
TTITLE3=Молитва
TTITLE4=Не придавай
TTITLE5=В лагерях
TTITLE6=Этапы
TTITLE7=Германия
TTITLE8=Грустное танго
TTITLE9=Я приду...
EXTD=
EXTT0=
EXTT1=
EXTT2=
EXTT3=
EXTT4=
EXTT5=
EXTT6=
EXTT7=
EXTT8=
EXTT9=
PLAYORDER=
